# xmcd
#
# Track frame offsets:
#	150
#	20050
#	27397
#	44475
#	57110
#	74010
#	90040
#	101852
#	115230
#	127522
#	142195
#	158582
#
# Disc length: 2480 seconds
#
# Revision: 0
# Processed by: cddbd v1.5.1PL0 Copyright (c) Steve Scherf et al.
# Submitted via: dBpowerAMP V4.0
#
DISCID=9f09ae0c
DTITLE=Gem - Hexed
DYEAR=1995
DGENRE=AlternRock
TTITLE0=Sheep
TTITLE1=Your Heroes Hate You
TTITLE2=Only A Loan
TTITLE3=Failed To See
TTITLE4=Suburban Girl
TTITLE5=Little Star
TTITLE6=I Hate It
TTITLE7=Any Trepidation
TTITLE8=Like This
TTITLE9=Many Moons Break
TTITLE10=Yeahya
TTITLE11=2 Me Now
EXTD=
EXTT0=
EXTT1=
EXTT2=
EXTT3=
EXTT4=
EXTT5=
EXTT6=
EXTT7=
EXTT8=
EXTT9=
EXTT10=
EXTT11=
PLAYORDER=
